{"title":"Sequoia.2014.HDRip.x264-MenaceIISociety","uid":12297300,"size":808503377,"categoryP":"video","categoryS":"movies","magnet":"?xt=urn:btih:190b02de88d11ab7c6ba99d8c8103726b74b775d&amp;dn=Sequoia.2014.HDRip.x264-MenaceIISociety&amp;tr=udp%3A%2F%2Ftracker.openbittorrent.com%3A80&amp;tr=udp%3A%2F%2Fopen.demonii.com%3A1337&amp;tr=udp%3A%2F%2Ftracker.coppersurfer.tk%3A6969&amp;tr=udp%3A%2F%2Fexodus.desync.com%3A6969","seeders":2,"leechers":0,"uploader":"TvTeam","files":4,"time":1440634036,"description":"------------------------------------------------------------------------\n\n &lt;a href=&quot; https://www.torrenting.com&quot; rel=&quot;nofollow&quot; target=&quot;_NEW&quot;&gt; https://www.torrenting.com&lt;/a&gt;\n\nSign up is OPEN - for time being. Come and have fun\n\n.......................................................................................................................[center][img]http://s9.postimg.org/ez4cpswi7/6d6d529d6dc642c4ef01d1f56eb6aa39ce9be7b9.jpg[/img]\n\nSequoia.2014.HDRip.x264-MenaceIISociety &lt;a href=&quot;\nhttp://imdb.com/title/tt2516304/&quot; rel=&quot;nofollow&quot; target=&quot;_NEW&quot;&gt;\nhttp://imdb.com/title/tt2516304/&lt;/a&gt;\n\nSource: 720p.WEB-DL.DD5.1.H264-FGT [THANKS]\n\nGeneral\nComplete name                            : Sequoia.2014.HDRip.x264-MenaceIISociety.mp4\nFormat                                   : MPEG-4\nFormat profile                           : Base Media\nCodec ID                                 : isom\nFile size                                : 751 MiB\nDuration                                 : 1h 27mn\nOverall bit rate mode                    : Variable\nOverall bit rate                         : 1 207 Kbps\nEncoded date                             : UTC 2015-08-26 21:42:38\nTagged date                              : UTC 2015-08-26 21:42:38\n\nVideo\nID                                       : 1\nFormat                                   : AVC\nFormat/Info                              : Advanced Video Codec\nFormat profile                           : &lt;a class=&quot;__cf_email__&quot; href=&quot;/cdn-cgi/l/email-protection&quot; data-cfemail=&quot;561e3f313e161a627867&quot;&gt;[email&amp;#160;protected]&lt;/a&gt;&lt;script data-cfhash='f9e31' type=&quot;text/javascript&quot;&gt;\n/* &lt;![CDATA[ */!function(){try{var t=&quot;currentScript&quot;in document?document.currentScript:function(){for(var t=document.getElementsByTagName(&quot;script&quot;),e=t.length;e--;)if(t[e].getAttribute(&quot;data-cfhash&quot;))return t[e]}();if(t&amp;&amp;t.previousSibling){var e,r,n,i,c=t.previousSibling,a=c.getAttribute(&quot;data-cfemail&quot;);if(a){for(e=&quot;&quot;,r=parseInt(a.substr(0,2),16),n=2;a.length-n;n+=2)i=parseInt(a.substr(n,2),16)^r,e+=String.fromCharCode(i);e=document.createTextNode(e),c.parentNode.replaceChild(e,c)}t.parentNode.removeChild(t);}}catch(u){}}()/* ]]&gt; */&lt;/script&gt;\nFormat settings, CABAC                   : Yes\nFormat settings, ReFrames                : 3 frames\nCodec ID                                 : avc1\nCodec ID/Info                            : Advanced Video Coding\nDuration                                 : 1h 27mn\nBit rate mode                            : Variable\nBit rate                                 : 889 Kbps\nMaximum bit rate                         : 40.0 Mbps\nWidth                                    : 720 pixels\nHeight                                   : 384 pixels\nDisplay aspect ratio                     : 1.85:1\nFrame rate mode                          : Constant\nFrame rate                               : 23.976 fps\nColor space                              : YUV\nChroma subsampling                       : 4:2:0\nBit depth                                : 8 bits\nScan type                                : Progressive\nBits/(Pixel*Frame)                       : 0.134\nStream size                              : 553 MiB (74%)\nWriting library                          : x264 core 148 r2579 73ae2d1\n\nAudio\nID                                       : 2\nFormat                                   : AAC\nFormat/Info                              : Advanced Audio Codec\nFormat profile                           : LC\nCodec ID                                 : 40\nDuration                                 : 1h 27mn\nBit rate mode                            : Variable\nBit rate                                 : 314 Kbps\nMaximum bit rate                         : 369 Kbps\nChannel(s)                               : 6 channels\nChannel positions                        : Front: L C R, Side: L R, LFE\nSampling rate                            : 48.0 KHz\nCompression mode                         : Lossy\nStream size                              : 196 MiB (26%)\nLanguage                                 : English\nEncoded date                             : UTC 2015-08-26 21:11:15\nTagged date                              : UTC 2015-08-26 21:44:33 \n\n[img]http://s22.postimg.org/4xip5j39t/vlcsnap_2015_08_26_23h46m09s570.jpg[/img]\n[img]http://s22.postimg.org/74rj76xxt/vlcsnap_2015_08_26_23h46m32s920.jpg[/img]\n[img]http://s22.postimg.org/iie2ie8gh/vlcsnap_2015_08_26_23h46m49s183.jpg[/img]\n[img]http://s22.postimg.org/617ev8dap/vlcsnap_2015_08_26_23h47m24s324.jpg[/img]\n[img]http://s22.postimg.org/akf2305sh/vlcsnap_2015_08_26_23h47m42s533.jpg[/img] \n \n[img]http://s17.postimg.org/r1iiyw8yn/Untitled_1.png[/img][/center]","torrent":{"xt":"urn:btih:190b02de88d11ab7c6ba99d8c8103726b74b775d","amp;dn":"Sequoia.2014.HDRip.x264-MenaceIISociety","amp;tr":["udp%3A%2F%2Ftracker.openbittorrent.com%3A80","udp%3A%2F%2Fopen.demonii.com%3A1337","udp%3A%2F%2Ftracker.coppersurfer.tk%3A6969","udp%3A%2F%2Fexodus.desync.com%3A6969"],"infoHash":"190b02de88d11ab7c6ba99d8c8103726b74b775d","infoHashBuffer":{"type":"Buffer","data":[25,11,2,222,136,209,26,183,198,186,153,216,200,16,55,38,183,75,119,93]},"announce":[],"urlList":[]}}